Coordinates
version=1
nRows=12
nColumns=33
inDegrees=yes

Units are S.I. units (second, meters, Newtons, ...)
Angles are in degrees.

endheader
time	ground_thorax_rot_x	ground_thorax_rot_y	ground_thorax_rot_z	ground_thorax_tx	ground_thorax_ty	ground_thorax_tz	clav_prot_r	clav_elev_r	scapula_abduction_r	scapula_elevation_r	scapula_upward_rot_r	scapula_winging_r	shoulder_elv_r	plane_of_elev_r	axial_rot_r	elbow_flexion_r	pro_sup_r	wrist_flex_r	wrist_dev_r	clav_prot_l	clav_elev_l	scapula_abduction_l	scapula_elevation_l	scapula_upward_rot_l	scapula_winging_l	shoulder_elv_l	plane_of_elev_l	axial_rot_l	elbow_flexion_l	pro_sup_l	wrist_flex_l	wrist_dev_l
      2.87000000	     29.89816306	     25.13538091	     34.85969281	    -53.23655070	    846.13731753	    -48.61282255	      2.82620136	     40.79892745	     39.51162208	     45.00000000	      8.84739595	  -2281.74868024	  -2261.74464435	    143.71402808	   -179.99999979	   1425.96412646	     63.48635031	     21.85483276	     15.54318907	     -7.84450055	    -45.00000000	    -40.39338979	     45.00000000	    -45.00000000	  -2053.81020187	    439.92215833	     25.68899376	     28.01338620	   1430.02869929	   -321.74631886	     13.61648468	    -18.92092866
      2.88000000	     29.89617440	     24.95900431	     34.83193879	    -54.23360946	    848.20938712	    -48.78200952	      2.83844957	     40.69793933	     39.44919961	     45.00000000	      8.99510395	  -2281.65455160	  -2261.57635974	    143.69306786	   -179.99999979	   1425.91761987	     63.13541741	     21.94937926	     15.55051712	     -7.56926653	    -45.00000000	    -40.51374978	     45.00000000	    -45.00000000	  -2053.66863585	    440.01044648	     25.83648258	     28.35577880	   1429.98807587	   -322.10937514	     13.65955670	    -18.97640502
      2.89000000	     29.84162140	     24.83336677	     34.77380557	    -55.17968474	    850.23687218	    -48.93780190	      2.79098143	     40.55433120	     39.33220586	     45.00000000	      9.11036156	  -2281.57728991	  -2261.44951762	    143.71324380	   -179.99999979	   1425.88647566	     62.79152230	     21.99931744	     15.52243056	     -7.15530562	    -45.00000000	    -40.71753150	     45.00000000	    -45.00000000	  -2053.49925949	    440.06993069	     26.04444250	     28.61491148	   1429.98505721	   -322.49168224	     13.68857655	    -19.01914648
      2.90000000	     29.97223770	     24.59961742	     34.62745990	    -56.07879641	    852.21526180	    -49.08118809	      2.92116078	     40.59652117	     39.45635181	     45.00000000	      9.06336295	  -2281.42794419	  -2261.20050111	    143.77028380	   -179.99999979	   1425.85937050	     62.50702158	     22.21096419	     15.58518143	     -7.54490636	    -45.00000000	    -40.68391178	     45.00000000	    -45.00000000	  -2053.61566889	    440.18983573	     25.97613617	     29.01162320	   1430.06228718	   -322.82800433	     13.70807665	    -19.15865563
      2.91000000	     29.96598475	     24.43585420	     34.69241185	    -56.93591811	    854.14020789	    -49.21297958	      2.85776125	     40.44658435	     39.30954625	     45.00000000	      9.25753845	  -2281.33698447	  -2261.12272862	    143.70435214	   -179.99999979	   1425.92939130	     62.24894999	     22.28442311	     15.52550984	     -7.01458356	    -45.00000000	    -40.83062980	     45.00000000	    -45.00000000	  -2053.36724470	    440.19717097	     26.14109810	     29.24747869	   1429.92547339	   -323.11791786	     13.75988458	    -19.17626842
      2.92000000	     29.99170588	     24.29550982	     34.54574554	    -57.75467668	    856.00836504	    -49.33298857	      2.84759092	     40.36998516	     39.27096586	     45.00000000	      9.34454454	  -2281.26782026	  -2260.94852272	    143.74025458	   -179.99999979	   1425.86758042	     62.06382462	     22.38371064	     15.51922867	     -6.89628300	    -45.00000000	    -40.94616233	     45.00000000	    -45.00000000	  -2053.31209976	    440.27802957	     26.28599294	     29.51521778	   1429.96375731	   -323.39515617	     13.77913599	    -19.26373309
      2.93000000	     30.02538741	     24.15055678	     34.51287616	    -58.53828288	    857.81523759	    -49.44000513	      2.87210157	     40.32014338	     39.24507820	     45.00000000	      9.37795044	  -2281.18686936	  -2260.80781305	    143.76266485	   -179.99999979	   1425.90183756	     61.94554705	     22.52990979	     15.49690284	     -6.80604828	    -45.00000000	    -41.11747611	     45.00000000	    -45.00000000	  -2053.25322092	    440.31599092	     26.31214702	     29.74750305	   1429.97987116	   -323.61318891	     13.79314980	    -19.35150657
      2.94000000	     30.22301621	     23.84660052	     34.28888445	    -59.28785800	    859.55321921	    -49.53196170	      2.87220117	     40.42444294	     39.45181022	     45.00000000	      9.33648194	  -2281.00499998	  -2260.61997458	    143.90635635	   -179.99999979	   1425.90817748	     61.86358309	     22.87294048	     15.54013296	     -7.10191457	    -45.00000000	    -41.00287742	     45.00000000	    -45.00000000	  -2053.40711147	    440.40937400	     26.18337680	     30.08715984	   1430.11230040	   -323.79056794	     13.78659667	    -19.56814227
      2.95000000	     30.41283010	     23.59309279	     33.96007524	    -60.01001025	    861.22654923	    -49.60774513	      2.85647056	     40.39289209	     39.56003078	     45.00000000	      9.34180955	  -2280.95306065	  -2260.45552265	    144.04774274	   -179.99999979	   1426.05802865	     61.79719848	     23.18219789	     15.46053327	     -6.97537268	    -45.00000000	    -40.93635468	     45.00000000	    -45.00000000	  -2053.41291305	    440.45747781	     26.32756339	     30.30832816	   1430.05266422	   -323.88277730	     13.83565508	    -19.70837619
      2.96000000	     30.41092083	     23.48091520	     34.04169228	    -60.70254556	    862.81742601	    -49.66617140	      2.88892544	     40.31905752	     39.46272573	     45.00000000	      9.41792456	  -2280.86245011	  -2260.39070792	    143.94554015	   -179.99999979	   1425.96108957	     61.85751397	     23.21653700	     15.45575984	     -6.96135096	    -45.00000000	    -40.94717249	     45.00000000	    -45.00000000	  -2053.32783784	    440.52262990	     26.34274608	     30.39446650	   1430.11912982	   -323.92981306	     13.83644400	    -19.79753547
      2.97000000	     30.52748423	     23.22315357	     33.71500567	    -61.37182961	    864.32624270	    -49.70900672	      2.82235175	     40.32937492	     39.52454367	     45.00000000	      9.56513591	  -2280.84110290	  -2260.33042072	    144.15071383	   -179.99999979	   1426.10791776	     61.88482762	     23.57468262	     15.40008512	     -6.79292596	    -45.00000000	    -40.95603254	     45.00000000	    -45.00000000	  -2053.32437550	    440.63527377	     26.53091776	     30.46850098	   1429.93000066	   -323.89393614	     13.90001781	    -19.93058132
      2.98000000	     30.45330146	     23.31672810	     33.95071162	    -62.01785210	    865.73974063	    -49.73913556	      2.78934437	     40.21244965	     39.26681982	     45.00000000	      9.63620798	  -2280.78931345	  -2260.23333538	    143.92760620	   -179.99999979	   1426.02377299	     62.04401993	     23.51347468	     15.35752071	     -6.59580624	    -45.00000000	    -41.18948431	     45.00000000	    -45.00000000	  -2053.12418235	    440.53059545	     26.50130176	     30.59358855	   1430.04611610	   -323.80896164	     13.85400817	    -20.00908463
